<?xml version="1.0" standalone="no"?>
<!DOCTYPE svg PUBLIC "-//W3C//DTD SVG 20010904//EN"
 "http://www.w3.org/TR/2001/REC-SVG-20010904/DTD/svg10.dtd">
<svg version="1.0" xmlns="http://www.w3.org/2000/svg"
 width="512.000000pt" height="512.000000pt" viewBox="0 0 512.000000 512.000000"
 preserveAspectRatio="xMidYMid meet">

	<g transform="translate(0.000000,512.000000) scale(0.100000,-0.100000)"
	fill="#000000" stroke="none">
	<path d="M2312 5060 c-165 -14 -434 -74 -582 -131 -30 -11 -67 -24 -81 -29
	-14 -4 -34 -12 -45 -18 -10 -5 -41 -20 -69 -32 -84 -37 -200 -97 -260 -135
	-241 -151 -288 -188 -485 -385 -155 -156 -172 -175 -226 -250 -21 -30 -41 -57
	-44 -60 -10 -9 -80 -110 -80 -115 0 -3 -12 -24 -27 -48 -31 -48 -36 -56 -85
	-152 -45 -87 -98 -202 -109 -235 -4 -14 -17 -50 -29 -80 -21 -55 -29 -82 -68
	-235 -51 -198 -72 -377 -72 -610 0 -294 40 -537 132 -810 32 -91 47 -134 57
	-153 5 -9 19 -39 31 -67 28 -64 83 -172 109 -216 12 -19 24 -41 28 -49 14 -31
	137 -207 191 -275 79 -99 304 -325 386 -387 38 -29 74 -58 80 -63 42 -40 256
	-170 396 -240 125 -62 179 -85 295 -123 149 -50 276 -81 445 -109 150 -26 590
	-26 740 0 240 40 462 104 635 182 199 90 435 230 553 329 141 117 322 295 398
	391 21 28 42 52 45 55 11 9 139 200 139 207 0 3 6 14 14 22 22 25 104 181 161
	306 76 168 144 401 182 630 26 155 26 593 0 745 -41 243 -104 463 -182 635
	-60 132 -129 262 -176 333 -16 24 -29 45 -29 48 0 4 -48 71 -78 109 -4 6 -34
	44 -66 86 -68 89 -289 310 -391 391 -68 54 -261 188 -270 188 -3 0 -24 12 -48
	27 -23 14 -85 48 -137 74 -83 41 -120 57 -228 100 -26 10 -107 37 -187 62
	-268 83 -620 115 -963 87z m545 -315 c66 -35 143 -108 167 -159 16 -33 18 -53
	12 -125 -3 -47 -9 -103 -12 -123 -6 -37 -6 -38 26 -38 42 0 151 -25 267 -61
	221 -68 386 -188 485 -351 122 -204 306 -715 389 -1083 21 -92 18 -572 -5
	-735 -18 -132 -42 -230 -56 -230 -4 0 -37 14 -73 31 -36 17 -90 33 -119 36
	-47 4 -56 2 -76 -20 -13 -14 -30 -52 -38 -88 -15 -64 -47 -300 -59 -439 -13
	-145 -45 -416 -55 -458 -22 -92 -95 -169 -217 -228 -117 -57 -237 -83 -385
	-84 l-68 0 0 894 0 895 -74 -34 c-40 -19 -91 -37 -113 -41 -22 -3 -45 -9 -52
	-13 -10 -6 -30 -378 -43 -817 -3 -94 -6 -104 -32 -139 -76 -100 -236 -99 -312
	1 l-28 36 -14 407 c-7 223 -15 429 -18 458 l-5 51 -52 12 c-29 7 -85 27 -124
	46 l-73 33 0 -896 0 -896 -122 6 c-133 8 -191 21 -317 75 -98 42 -178 110
	-210 178 -25 53 -40 154 -75 504 -41 406 -65 525 -111 550 -34 18 -107 6 -181
	-30 -34 -17 -66 -30 -72 -30 -36 0 -67 236 -87 660 -9 174 9 277 109 625 76
	267 247 685 326 799 85 123 194 204 400 296 58 26 281 80 329 80 32 0 33 1 27
	33 -3 17 -9 78 -12 134 -8 126 8 180 64 218 30 21 49 25 105 25 93 0 151 -31
	212 -112 15 -21 31 -38 35 -38 5 0 16 22 24 48 23 68 69 126 119 152 54 27
	122 22 194 -15z"/>
	<path d="M2693 4680 c-18 -10 -41 -37 -53 -59 -23 -47 -50 -151 -50 -199 0
	-36 -16 -48 -55 -38 -17 4 -32 23 -54 69 -41 86 -100 152 -154 170 -66 22
	-120 7 -137 -39 -22 -56 -4 -206 35 -307 18 -44 25 -40 -105 -56 -281 -35
	-512 -137 -645 -283 -38 -43 -74 -100 -120 -193 -36 -73 -65 -138 -65 -143 0
	-6 -7 -23 -15 -39 -55 -105 -170 -464 -234 -725 -29 -121 -31 -138 -31 -325 0
	-184 27 -524 44 -551 4 -6 24 -3 58 10 40 15 70 19 120 16 148 -8 169 -73 233
	-718 24 -248 43 -359 70 -405 33 -57 95 -100 218 -149 48 -20 231 -50 252 -43
	13 6 15 103 15 892 l0 886 -44 92 c-25 51 -48 109 -51 129 -4 20 -12 44 -19
	53 -10 14 -15 13 -51 -5 -58 -30 -107 -26 -148 10 -30 26 -37 41 -56 132 -12
	57 -33 127 -47 157 -28 63 -54 156 -54 197 0 123 111 214 224 185 25 -6 47
	-11 49 -11 2 0 10 28 17 62 16 83 51 150 113 216 73 76 136 106 298 139 122
	25 520 25 638 0 149 -31 223 -62 283 -121 75 -73 116 -152 133 -254 6 -35 10
	-42 23 -37 85 34 185 -6 229 -89 26 -49 21 -147 -11 -231 -40 -102 -64 -182
	-77 -250 -15 -81 -58 -125 -121 -125 -23 1 -54 7 -68 15 -38 21 -48 18 -55
	-17 -10 -48 -55 -158 -82 -200 l-23 -38 0 -890 c0 -790 2 -891 15 -896 21 -9
	167 15 240 38 77 24 162 72 199 112 60 65 67 98 116 581 38 369 62 486 115
	543 30 33 38 36 98 40 44 3 81 -1 113 -12 26 -9 53 -16 60 -16 22 0 42 177 60
	540 7 138 0 195 -43 370 -48 199 -197 652 -225 685 -4 5 -8 16 -8 24 0 34
	-142 301 -186 350 -136 151 -346 247 -636 290 -141 20 -133 9 -99 135 11 44
	21 105 21 137 0 53 -3 60 -45 107 -46 51 -131 102 -169 102 -12 0 -35 -9 -53
	-20z"/>
	<path d="M2350 3739 c-238 -24 -364 -100 -417 -254 -23 -63 -22 -305 1 -422 8
	-43 22 -125 31 -183 64 -416 186 -520 605 -520 225 0 355 32 444 111 98 85
	131 191 194 614 9 61 16 169 16 240 0 113 -3 136 -22 178 -30 67 -87 133 -139
	164 -116 68 -432 100 -713 72z"/>
	<path d="M1700 3319 c-41 -17 -59 -39 -65 -83 -7 -42 -3 -55 66 -246 11 -30
	25 -82 30 -114 6 -32 14 -67 20 -78 16 -30 58 -22 96 19 34 35 35 39 28 87 -4
	28 -17 127 -29 221 l-22 169 -40 18 c-45 20 -50 20 -84 7z"/>
	<path d="M3349 3314 l-35 -15 -13 -122 c-7 -67 -19 -158 -27 -202 -21 -121
	-19 -139 17 -169 17 -14 39 -26 49 -26 24 0 50 37 50 69 0 32 26 120 61 206
	62 152 58 230 -15 260 -42 18 -42 18 -87 -1z"/>
	<path d="M2436 2270 c-2 -3 4 -200 13 -437 l16 -433 28 -27 c23 -23 36 -28 78
	-28 44 0 54 4 78 31 l28 31 14 409 c8 225 14 420 14 433 l0 24 -133 1 c-74 1
	-135 -1 -136 -4z"/>
	</g>
</svg>
